<?xml version="1.0" encoding="iso-8859-1"?>
<!-- Uploaded to: SVG Repo, www.svgrepo.com, Generator: SVG Repo Mixer Tools -->
<svg fill="#000000" width="60%" height="60%" version="1.1" id="Layer_1" xmlns="http://www.w3.org/2000/svg" xmlns:xlink="http://www.w3.org/1999/xlink" 
	 viewBox="0 0 512.005 512.005" xml:space="preserve">
<g>
	<g>
		<path d="M493.818,422.491c-24.178,0-47.199-9.978-66.574-28.858c-7.06-6.879-18.317-6.879-25.378,0
			c-19.376,18.878-42.397,28.858-66.574,28.858c-24.184,0-47.211-9.984-66.591-28.873c-7.062-6.883-18.324-6.883-25.385,0.004
			c-19.368,18.888-42.386,28.87-66.568,28.87c-24.184,0-47.211-9.984-66.591-28.873c-7.062-6.883-18.324-6.883-25.385,0.004
			c-19.368,18.888-42.386,28.87-66.568,28.87c-10.041,0-18.182,8.141-18.182,18.182s8.141,18.182,18.182,18.182
			c22.482,0,44.63-6.333,64.621-18.182c5.026-2.979,9.921-6.29,14.644-9.957c4.725,3.666,9.622,6.977,14.649,9.957
			c19.996,11.849,42.148,18.182,64.631,18.182c22.482,0,44.63-6.333,64.621-18.182c5.026-2.979,9.921-6.29,14.644-9.957
			c4.725,3.666,9.622,6.977,14.649,9.957c19.996,11.849,42.148,18.182,64.631,18.182c22.482,0,44.635-6.333,64.632-18.182
			c5.021-2.975,9.912-6.283,14.632-9.942c4.719,3.661,9.61,6.967,14.632,9.942c19.997,11.849,42.15,18.182,64.632,18.182
			c10.041,0,18.182-8.141,18.182-18.182S503.859,422.491,493.818,422.491z"/>
	</g>
</g>
<g>
	<g>
		<path d="M493.818,321.996c-24.176,0-47.199-9.978-66.574-28.858c-7.06-6.879-18.317-6.879-25.378,0
			c-19.376,18.879-42.397,28.858-66.574,28.858c-24.184,0-47.211-9.984-66.591-28.873c-7.062-6.883-18.324-6.883-25.385,0.002
			c-19.368,18.888-42.386,28.871-66.568,28.871c-24.184,0-47.211-9.984-66.591-28.873c-7.062-6.883-18.324-6.883-25.385,0.002
			c-19.368,18.888-42.386,28.871-66.568,28.871c-10.041,0-18.182,8.141-18.182,18.182s8.141,18.182,18.182,18.182
			c22.482,0,44.63-6.333,64.621-18.182c5.026-2.978,9.921-6.29,14.644-9.955c4.724,3.666,9.621,6.977,14.648,9.955
			c19.997,11.849,42.149,18.182,64.631,18.182s44.63-6.333,64.621-18.182c5.026-2.978,9.921-6.29,14.644-9.955
			c4.724,3.666,9.621,6.977,14.648,9.955c19.997,11.849,42.149,18.182,64.631,18.182c22.482,0,44.635-6.333,64.631-18.182
			c5.021-2.976,9.912-6.283,14.632-9.943c4.719,3.661,9.61,6.967,14.632,9.943c19.997,11.849,42.149,18.182,64.631,18.182
			c10.041,0,18.182-8.141,18.182-18.182S503.859,321.996,493.818,321.996z"/>
	</g>
</g>
<g>
	<g>
		<path d="M493.818,221.5c-24.178,0-47.199-9.978-66.574-28.858c-7.06-6.879-18.317-6.879-25.378,0
			c-6.857,6.681-14.177,12.223-21.837,16.627c-0.09-7.666-0.885-15.165-2.327-22.434l20.542-8.875
			c9.217-3.983,13.462-14.684,9.479-23.902c-3.983-9.218-14.684-13.461-23.902-9.479l-18.487,7.988
			c-1.819-3.356-3.793-6.617-5.908-9.776l15.296-15.296c7.101-7.101,7.101-18.613,0-25.713c-7.102-7.1-18.613-7.101-25.713,0
			l-14.077,14.077c-3.881-3.17-7.96-6.104-12.214-8.787l6.976-17.59c3.702-9.335-0.864-19.902-10.199-23.604
			c-9.335-3.701-19.902,0.864-23.604,10.199l-6.501,16.391c-4.564-1.228-9.231-2.2-13.986-2.896V71.331
			c0-10.041-8.141-18.182-18.182-18.182s-18.182,8.141-18.182,18.182v18.34c-5.326,0.813-10.538,1.976-15.617,3.453l-7.003-16.206
			c-3.983-9.218-14.685-13.461-23.902-9.479c-9.218,3.983-13.462,14.684-9.479,23.902l7.37,17.056
			c-3.652,2.406-7.174,4.997-10.54,7.77l-14.389-14.388c-7.1-7.1-18.613-7.101-25.713,0c-7.1,7.101-7.1,18.613,0,25.713
			l15.718,15.718c-2.24,3.376-4.315,6.869-6.218,10.468l-21.066-9.102c-9.22-3.986-19.919,0.259-23.902,9.479
			c-3.983,9.218,0.261,19.92,9.479,23.902l23.295,10.14c-1.376,7.335-2.276,14.895-2.276,22.624v0.269
			c-8.485-4.645-17.021-10.772-24.811-18.365c-7.062-6.883-18.238-6.883-25.299,0.004c-19.368,18.888-42.343,28.87-66.525,28.87
			C8.119,221.499,0,229.639,0,239.681s8.163,18.183,18.204,18.183c28.134,0,55.758-9.892,79.265-28.138
			c23.517,18.248,51.144,28.138,79.279,28.138c28.134,0,55.758-9.892,79.265-28.138c23.517,18.248,51.144,28.138,79.279,28.138
			c28.127,0,55.75-9.888,79.263-28.124c23.512,18.237,51.136,28.124,79.263,28.124c10.041,0,18.182-8.141,18.182-18.182
			S503.859,221.5,493.818,221.5z M343.286,221.082c-2.424,0.269-5.377,0.418-8.193,0.418c-24.184,0-47.111-9.984-66.491-28.873
			c-7.062-6.883-18.274-6.883-25.335,0.004c-19.368,18.888-42.534,28.87-66.716,28.87c-1.755,0-2.966-0.068-5.39-0.173v-10.605h0
			c0-47.47,38.592-86.089,86.063-86.089s86.063,38.619,86.063,86.089V221.082z"/>
	</g>
</g>
</svg>