<?xml version="1.0" encoding="iso-8859-1"?>
<!-- Uploaded to: SVG Repo, www.svgrepo.com, Generator: SVG Repo Mixer Tools -->
<svg fill="#000000" width="60%" height="60%" version="1.1" id="Layer_1" xmlns="http://www.w3.org/2000/svg" xmlns:xlink="http://www.w3.org/1999/xlink" 
	 viewBox="0 0 512.004 512.004" xml:space="preserve">
<g>
	<g>
		<path d="M256.007,53.145c-10.042,0-18.183,8.141-18.183,18.183v24.684c6.427-1.104,13.03-1.686,19.767-1.686
			c5.634,0,11.175,0.411,16.598,1.188V71.327C274.189,61.286,266.048,53.145,256.007,53.145z"/>
	</g>
</g>
<g>
	<g>
		<path d="M374.721,101.776c-7.102-7.1-18.613-7.101-25.714,0l-18.385,18.384c9.479,7.66,17.735,16.773,24.428,27l19.671-19.67
			C381.822,120.389,381.822,108.877,374.721,101.776z"/>
	</g>
</g>
<g>
	<g>
		<path d="M165.474,101.774c-7.1-7.1-18.613-7.101-25.714,0c-7.1,7.101-7.1,18.613,0,25.714l20.092,20.092
			c6.651-10.257,14.872-19.407,24.32-27.108L165.474,101.774z"/>
	</g>
</g>
<g>
	<g>
		<path d="M319.493,65.869c-9.335-3.701-19.903,0.864-23.605,10.199l-8.75,22.062c11.956,3.141,23.168,8.136,33.305,14.665
			l9.249-23.321C333.394,80.139,328.828,69.571,319.493,65.869z"/>
	</g>
</g>
<g>
	<g>
		<path d="M407.723,154.054c-3.983-9.219-14.684-13.461-23.903-9.479l-24.075,10.402c5.785,10.558,9.975,22.106,12.258,34.318
			l26.241-11.338C407.461,173.973,411.706,163.272,407.723,154.054z"/>
	</g>
</g>
<g>
	<g>
		<path d="M128.195,144.574c-9.22-3.986-19.92,0.259-23.903,9.479c-3.983,9.219,0.261,19.921,9.479,23.903l29.176,12.607
			c2.148-12.254,6.222-23.852,11.894-34.475L128.195,144.574z"/>
	</g>
</g>
<g>
	<g>
		<path d="M216.416,76.914c-3.983-9.219-14.685-13.461-23.903-9.479c-9.219,3.983-13.462,14.684-9.479,23.903l9.81,22.704
			c10.013-6.728,21.12-11.944,32.997-15.316L216.416,76.914z"/>
	</g>
</g>
<g>
	<g>
		<path d="M493.819,422.494c-24.178,0-47.2-9.979-66.575-28.858c-7.06-6.879-18.317-6.879-25.378,0
			c-19.377,18.878-42.398,28.858-66.575,28.858c-24.184,0-47.212-9.985-66.592-28.874c-7.062-6.883-18.324-6.883-25.385,0.004
			c-19.368,18.888-42.387,28.87-66.569,28.87c-24.184,0-47.212-9.985-66.592-28.874c-7.062-6.883-18.324-6.883-25.385,0.004
			c-19.368,18.888-42.387,28.87-66.569,28.87c-10.042,0-18.183,8.141-18.183,18.183c0,10.042,8.141,18.183,18.183,18.183
			c28.135,0,55.759-9.893,79.267-28.138c23.517,18.248,51.145,28.138,79.281,28.138c28.135,0,55.759-9.893,79.267-28.138
			c23.517,18.248,51.145,28.138,79.281,28.138c28.127,0,55.752-9.888,79.264-28.125c23.513,18.237,51.137,28.125,79.264,28.125
			c10.042,0,18.183-8.141,18.183-18.183C512.004,430.634,503.86,422.494,493.819,422.494z"/>
	</g>
</g>
<g>
	<g>
		<path d="M493.819,321.997c-24.177,0-47.2-9.979-66.575-28.858c-7.06-6.879-18.317-6.879-25.378,0
			c-19.377,18.88-42.398,28.858-66.575,28.858c-24.184,0-47.212-9.985-66.592-28.874c-7.062-6.883-18.324-6.883-25.385,0.002
			c-19.368,18.888-42.387,28.872-66.569,28.872c-24.184,0-47.212-9.985-66.592-28.874c-7.062-6.883-18.324-6.883-25.385,0.002
			c-19.368,18.888-42.387,28.872-66.569,28.872c-10.042,0-18.183,8.141-18.183,18.183c0,10.042,8.141,18.183,18.183,18.183
			c28.133,0,55.758-9.893,79.267-28.138c23.517,18.248,51.145,28.138,79.281,28.138c28.133,0,55.758-9.893,79.267-28.138
			c23.517,18.248,51.145,28.138,79.281,28.138c28.127,0,55.752-9.888,79.264-28.126c23.513,18.237,51.137,28.126,79.264,28.126
			c10.042,0,18.183-8.141,18.183-18.183C512.004,330.138,503.86,321.997,493.819,321.997z"/>
	</g>
</g>
<g>
	<g>
		<path d="M493.819,221.498c-24.178,0-47.2-9.979-66.575-28.858c-7.06-6.879-18.317-6.879-25.378,0
			c-8.64,8.419-18.209,15.055-28.079,19.838c-7.803,3.782-15.957,6.391-24.442,7.792v-9.552c0-50.812-41.313-92.152-92.125-92.152
			c-50.812,0-92.125,41.34-92.125,92.152v10.014c-8.485-1.087-16.25-3.357-24.071-6.797c-11.036-4.855-21.399-11.994-30.959-21.312
			c-7.062-6.883-18.282-6.883-25.343,0.004c-19.368,18.888-42.366,28.87-66.548,28.87C8.13,221.497,0,229.638,0,239.679
			c0,10.042,8.153,18.184,18.195,18.184c28.135,0,55.759-9.893,79.267-28.138c23.517,18.248,51.145,28.138,79.281,28.138
			c28.135,0,55.759-9.893,79.267-28.138c23.517,18.248,51.145,28.138,79.281,28.138c28.127,0,55.752-9.888,79.264-28.125
			c23.513,18.237,51.137,28.125,79.264,28.125c10.042,0,18.183-8.141,18.183-18.183C512.001,229.639,503.86,221.498,493.819,221.498
			z"/>
	</g>
</g>
</svg>